<?xml version="1.0" encoding="UTF-8" standalone="no"?>
<!-- Created with Inkscape (http://www.inkscape.org/) -->

<svg
   width="104.42334mm"
   height="100.21984mm"
   viewBox="0 0 104.42334 100.21984"
   version="1.1"
   id="svg1"
   xml:space="preserve"
   xmlns="http://www.w3.org/2000/svg"
   xmlns:svg="http://www.w3.org/2000/svg"><defs
     id="defs1" /><g
     id="layer1"
     transform="translate(135.19469,-153.92095)"><path
       id="path2"
       style="fill:#f9f9f9;stroke-width:0.264583"
       d="m -60.103308,153.92135 c -0.0057,5.7e-4 -0.01131,0.002 -0.01602,0.004 -0.08866,0.034 -2.10643,2.73613 -2.993099,4.00803 -0.775748,1.11279 -1.254342,1.74361 -1.998327,2.63394 -1.205907,1.44313 -2.777702,3.05717 -3.316594,3.40548 -0.401178,0.25929 -0.852387,0.39316 -1.337386,0.39739 -0.412398,0.004 -0.619201,-0.0681 -0.754993,-0.262 -0.09567,-0.13659 -0.09349,-0.47156 0.0041,-0.66197 0.18443,-0.36043 0.733723,-0.88005 0.930692,-0.88005 0.186071,0 0.02168,-0.0896 -0.597379,-0.32556 -2.665426,-1.01599 -4.11656,-1.27544 -7.654314,-1.36891 -4.441045,-0.11734 -8.041058,-0.0153 -9.94823,0.28163 -3.895419,0.60649 -5.269069,0.95204 -10.602453,2.66754 -2.194949,0.70602 -3.781189,1.36581 -6.095749,2.53525 -1.6351,0.82614 -2.80964,1.50109 -4.82141,2.77192 -2.32237,1.46703 -3.67199,2.57026 -5.14697,4.20543 -1.52215,1.68747 -3.60589,4.59389 -4.35271,6.07198 -0.21567,0.42686 -0.48146,0.92427 -0.59066,1.10536 -0.27902,0.46273 -0.40696,0.72572 -0.37673,0.77463 0.0143,0.0231 0.21117,0.14199 0.43718,0.26458 0.59591,0.32321 1.03844,0.63258 1.28778,0.89969 0.17464,0.1871 0.22995,0.28819 0.2744,0.50229 0.087,0.41899 -0.0143,0.82889 -0.24443,0.99012 -0.19625,0.13746 -0.37488,0.0876 -1.24333,-0.34468 -0.77741,-0.38698 -1.36205,-0.72581 -2.88562,-1.67276 -1.42444,-0.88535 -2.75703,-1.56945 -3.76307,-1.93219 -0.98317,-0.35449 -3.39551,-0.96501 -4.65656,-1.17822 -0.9635,-0.16291 -3.61669,-0.13819 -4.22971,0.0393 -0.36947,0.10696 -0.40405,0.20078 -0.39946,1.08468 0.004,0.8188 0.10039,1.3794 0.36845,2.14664 0.38878,1.11278 1.50657,2.58162 2.70836,3.55844 1.14951,0.93435 2.34134,1.51085 4.40541,2.13217 0.51338,0.15453 1.16346,0.36657 1.44436,0.47077 2.03947,0.75662 3.10266,0.88202 4.87205,0.57568 0.90756,-0.15712 1.44936,-0.1898 1.54565,-0.0935 0.14523,0.14524 -7.2e-4,0.77267 -0.25838,1.11156 -0.17524,0.23037 -0.34991,0.31735 -0.87386,0.43614 -0.54983,0.12467 -0.55527,0.13214 -0.64543,0.79634 -0.0297,0.21906 -0.11554,0.75806 -0.19068,1.19786 -0.12067,0.70615 -0.31351,2.34753 -0.39482,3.3631 -0.11956,1.49345 -0.16687,3.09172 -0.16692,5.62085 -5e-5,3.40693 0.0568,4.185 0.51625,7.07915 0.33326,2.09933 0.75046,5.29002 0.91674,7.00836 0.19739,2.03967 0.41783,3.69326 0.63614,4.77438 0.0731,0.36218 0.16769,0.91274 0.21032,1.22318 0.0426,0.31044 0.13781,0.83932 0.21136,1.17564 0.10586,0.48397 0.1289,0.68507 0.10955,0.96429 -0.0214,0.30872 0.003,0.46754 0.19637,1.2702 0.32913,1.36651 0.4921,1.92376 1.11518,3.81011 0.67131,2.0324 0.89448,2.63101 2.20348,5.90816 1.06441,2.6648 1.31956,3.32203 1.85777,4.79247 0.18939,0.51741 0.48539,1.3115 0.65784,1.76424 0.17245,0.45273 0.45081,1.204 0.61908,1.66966 0.55724,1.54211 1.67871,4.16831 2.28927,5.36195 0.80253,1.56891 2.35376,3.3232 3.7946,4.29018 0.95098,0.63823 2.5543,1.25185 3.95066,1.51257 1.30231,0.24316 3.205694,0.34814 4.350648,0.23978 0.583079,-0.0552 0.84236,-0.15145 1.311548,-0.48628 0.429159,-0.30625 0.766608,-0.62332 1.074353,-1.01027 0.488096,-0.6137 0.481592,-0.59126 0.482658,-1.70016 7.94e-4,-0.90836 0.0072,-0.97682 0.10852,-1.18236 0.185989,-0.37751 0.667352,-0.60312 1.138432,-0.5333 0.367665,0.0545 0.534009,0.16846 1.345137,0.91726 0.675524,0.62361 1.219549,1.04989 2.018482,1.58182 1.14104,0.7597 1.027288,0.71195 1.787488,0.74517 0.362186,0.0159 0.931996,0.0613 1.266072,0.10129 0.450188,0.0539 0.900243,0.0675 1.739946,0.0522 0.993327,-0.0181 1.171018,-0.0326 1.439705,-0.12041 0.413388,-0.13511 0.801354,-0.37827 1.367875,-0.85628 0.872662,-0.73631 1.292127,-1.29143 1.829863,-2.42207 0.385067,-0.80966 0.552764,-1.06505 0.81132,-1.2361 0.179102,-0.1185 0.228003,-0.1277 0.667143,-0.12506 0.404873,0.003 0.519766,0.0216 0.790649,0.13229 0.611727,0.24998 0.745935,0.35358 1.682068,1.29812 1.234334,1.24541 2.24358,1.9955 3.600297,2.67632 1.316289,0.66053 1.776264,0.78462 2.76779,0.74672 0.696569,-0.0266 1.137435,-0.14114 1.769401,-0.4594 0.853464,-0.42981 1.866745,-1.2475 2.205033,-1.77974 0.227722,-0.35827 0.254139,-0.5398 0.262516,-1.81746 0.0083,-1.2682 0.02813,-1.38925 0.269751,-1.61178 0.265837,-0.24484 0.970048,-0.36684 1.410767,-0.24443 0.245931,0.0683 0.51264,0.39234 0.824756,1.00252 0.401394,0.78471 0.95578,1.39997 1.941483,2.15491 0.848071,0.64954 1.692658,1.16449 2.299602,1.40198 0.337193,0.13194 2.029042,0.62769 2.669604,0.78238 0.710102,0.17148 1.118371,0.12416 2.106331,-0.24495 0.515752,-0.19269 1.705091,-0.78254 2.096513,-1.03973 0.556572,-0.36572 1.084705,-0.92389 1.334286,-1.41076 0.204359,-0.39864 0.230264,-0.6355 0.259932,-2.3425 0.02777,-1.59832 0.03185,-1.6526 0.137976,-1.8681 0.126151,-0.25624 0.465744,-0.55929 0.785482,-0.70073 0.281628,-0.12457 0.595228,-0.0936 1.005107,0.10025 0.339304,0.16047 0.540847,0.29425 1.281058,0.84853 0.656074,0.49128 1.079926,0.73538 1.441773,0.82992 0.422754,0.11044 2.436005,0.0618 2.953308,-0.0713 0.607153,-0.15612 1.64414,-0.50905 1.986442,-0.67645 0.388316,-0.18992 0.945326,-0.72785 1.370459,-1.32291 0.445172,-0.6231 0.436959,-0.57042 0.403076,-2.57194 -0.03326,-1.96361 0.0055,-2.71155 0.148828,-2.9068 0.163584,-0.22237 0.553316,-0.39813 0.936377,-0.42271 0.450887,-0.029 0.679411,0.0776 1.382862,0.64492 0.620022,0.50004 0.677885,0.53376 1.194759,0.69711 0.524843,0.16586 1.137596,0.17291 1.60507,0.0186 0.636746,-0.2102 1.140324,-0.55716 1.775602,-1.22473 0.499443,-0.52483 0.966694,-1.2199 1.568896,-2.33319 0.812086,-1.50129 1.102208,-2.19053 1.215947,-2.88717 0.153049,-0.93743 0.128575,-3.59193 -0.04703,-5.10925 -0.192167,-1.66013 -0.236438,-1.82024 -1.857251,-6.7262 -0.256408,-0.77611 -0.573604,-1.82407 -0.705383,-2.32854 -0.770413,-2.94929 -0.950634,-3.50387 -2.13682,-6.57893 -0.622604,-1.61405 -0.865513,-2.19121 -1.318783,-3.13417 -0.174104,-0.36219 -0.396562,-0.82759 -0.494543,-1.03456 -0.09797,-0.20696 -0.303616,-0.61504 -0.45682,-0.90641 l -0.278536,-0.52968 -0.155546,0.24029 c -0.214037,0.33032 -1.076585,1.19261 -1.523421,1.52291 -0.497795,0.36796 -1.714832,1.1206 -2.140438,1.32395 -0.367188,0.17546 -0.692314,0.2388 -0.965316,0.18758 -0.397693,-0.0746 -1.018031,-0.90529 -1.016992,-1.36167 0.0016,-0.45558 0.456595,-0.94981 1.373043,-1.4888 1.101622,-0.64791 1.492718,-0.93344 2.050004,-1.49707 1.133129,-1.14603 1.830913,-2.11993 2.531628,-3.53415 1.188275,-2.39825 1.746874,-4.06033 1.952852,-5.81049 0.106738,-0.9069 0.03157,-4.12586 -0.121956,-5.21881 -0.203366,-1.44793 -0.541185,-2.44655 -1.027844,-3.03754 -0.368062,-0.44697 -1.149818,-1.02091 -1.534273,-1.12706 -0.321093,-0.0887 -0.568216,0.10265 -2.238107,1.73529 -1.037842,1.01469 -1.893937,1.91157 -2.272212,2.3797 -0.146335,0.18109 -0.678511,0.82711 -1.182357,1.43506 -0.981292,1.18403 -1.669488,2.08185 -2.300635,3.0024 -0.803445,1.17186 -1.137748,1.51308 -1.483114,1.51308 -0.350932,0 -0.836704,-0.35335 -1.04128,-0.75706 -0.211984,-0.41833 -0.147906,-0.84665 0.222209,-1.47742 0.316119,-0.53876 2.220224,-3.21416 2.589506,-3.63854 0.501462,-0.57629 0.495454,-0.56273 0.356051,-0.78497 -0.06412,-0.10228 -0.314084,-0.54567 -0.555522,-0.98547 -0.241448,-0.4398 -0.597784,-1.0858 -0.791683,-1.43505 -0.193906,-0.34925 -0.832833,-1.58708 -1.419552,-2.75125 -2.362827,-4.68825 -3.047697,-5.95238 -4.207495,-7.76129 -0.315148,-0.49154 -0.693813,-1.0947 -0.841292,-1.34048 -0.405159,-0.6752 -1.364673,-2.13364 -1.668632,-2.53628 -0.148095,-0.19618 -0.594762,-0.79051 -0.992704,-1.32085 -0.397941,-0.53034 -0.819467,-1.09122 -0.936894,-1.24644 -0.442598,-0.58504 -1.223049,-1.56045 -1.670182,-2.08773 -0.254918,-0.30061 -0.622615,-0.75828 -0.817521,-1.01699 -0.194913,-0.2587 -0.377913,-0.48555 -0.406694,-0.50436 -0.07934,-0.0519 -0.191312,-0.004 -0.805119,0.3452 -1.12295,0.63907 -1.440633,0.65963 -2.021582,0.12867 -0.457991,-0.41857 -0.576208,-0.93983 -0.326595,-1.44074 0.186312,-0.37388 0.496785,-0.61595 1.302246,-1.01699 1.23435,-0.61459 1.921208,-1.07919 2.685624,-1.81539 0.592079,-0.57022 0.98593,-1.0957 1.316199,-1.75648 0.405707,-0.81174 0.579882,-1.39048 0.646472,-2.14768 0.0654,-0.74388 0.0339,-1.8114 -0.0677,-2.28099 -0.199649,-0.92304 -0.59865,-1.79518 -1.113627,-2.43448 -0.483393,-0.60009 -1.137563,-1.17146 -1.315165,-1.15394 z m -7.878589,21.9196 c 0.0932,-2.9e-4 0.180974,0.0319 0.341581,0.11368 0.934329,0.47783 0.734059,1.54255 -0.680062,3.61529 -0.194154,0.28458 -0.475353,0.69736 -0.625284,0.91725 -0.274923,0.40323 -0.613226,1.01956 -0.590145,1.07229 v 5.2e-4 l 5.16e-4,5.1e-4 5.17e-4,5.2e-4 h 5.17e-4 v 5.2e-4 h 5.17e-4 5.17e-4 c 0.02215,0.003 0.22236,-0.10279 0.455269,-0.24133 0.865828,-0.51519 1.791012,-0.95023 2.6479,-1.24592 0.976915,-0.33712 1.16521,-0.38393 1.552877,-0.38551 0.356089,-0.002 0.55957,0.1246 0.742074,0.45992 0.28737,0.52799 0.255836,1.05739 -0.08733,1.45831 -0.247452,0.28911 -0.834977,0.55325 -2.113566,0.95085 -1.173374,0.36489 -1.425509,0.4769 -1.697054,0.75499 -0.174082,0.17827 -0.17594,0.18417 -0.09147,0.2775 0.119513,0.13206 0.447701,0.27783 1.27124,0.56483 1.300441,0.4532 1.788532,0.76325 2.048454,1.30018 0.151204,0.31237 0.162363,1.04087 0.01964,1.28777 -0.216347,0.37432 -0.834264,0.48303 -1.503784,0.26459 -0.835658,-0.27264 -4.575543,-2.07008 -5.460132,-2.62413 -0.360741,-0.22594 -0.768274,-0.65071 -0.943095,-0.98289 -0.122679,-0.2331 -0.134903,-0.29854 -0.133842,-0.72657 7.94e-4,-0.36249 0.02584,-0.54569 0.109554,-0.79943 0.159859,-0.48485 0.311066,-0.71955 0.998906,-1.55236 0.811078,-0.98202 1.202013,-1.50119 1.812809,-2.40709 0.896181,-1.32917 1.490398,-2.00115 1.825212,-2.06396 0.03511,-0.007 0.0666,-0.0102 0.09767,-0.0103 z m -13.810527,9.90327 c 0.174352,0.002 0.400454,0.0907 0.749826,0.26613 0.797997,0.40078 0.9625,0.72768 1.091923,2.16731 0.09735,1.08289 -0.04128,1.89678 -0.468189,2.74247 l -0.149862,0.29611 0.182418,0.20722 c 0.251756,0.28601 0.424074,0.62601 0.80977,1.59732 0.449265,1.1314 0.785592,2.14207 0.84801,2.55023 0.03202,0.20931 0.04518,0.87224 0.03514,1.74046 -0.01786,1.54687 -0.0082,1.48734 -0.364319,2.25309 -0.412427,0.88689 -1.206108,1.84904 -2.06499,2.50269 -0.335952,0.25566 -0.928265,0.54266 -1.323433,0.64131 -0.363593,0.0908 -1.536394,0.13472 -1.966805,0.0739 -1.185783,-0.16764 -2.25762,-0.85149 -3.144511,-2.00607 -0.402495,-0.52398 -0.683288,-1.0593 -0.994255,-1.89756 -0.365072,-0.98413 -0.439004,-1.58985 -0.340031,-2.78588 0.03274,-0.39536 0.06225,-0.88806 0.06563,-1.09502 l 0.0062,-0.37621 -0.530716,-0.0331 c -0.890294,-0.0556 -1.772437,-0.41624 -2.368848,-0.96842 -0.73447,-0.67998 -1.010568,-1.33405 -1.063501,-2.51922 -0.0312,-0.69804 0.03735,-1.11142 0.239262,-1.44746 0.193326,-0.32177 0.395413,-0.44086 0.741557,-0.43615 0.367366,0.005 0.673537,0.16009 0.843359,0.42788 0.155731,0.24555 0.217541,0.49026 0.276469,1.09709 0.07779,0.8011 0.357306,1.24648 0.884184,1.40922 0.36949,0.11412 0.943201,0.12758 1.138948,0.0264 0.21141,-0.10933 0.536482,-0.50475 0.722953,-0.87953 0.213878,-0.42988 0.302156,-0.86632 0.367937,-1.81539 0.03635,-0.5246 0.07424,-0.7808 0.129191,-0.87747 0.124741,-0.21949 0.388835,-0.32617 0.862479,-0.34881 0.372435,-0.0178 0.438384,-0.008 0.663526,0.10232 0.306642,0.15002 0.392531,0.23964 0.809253,0.84335 0.470246,0.68126 0.63107,0.77086 1.46296,0.81856 0.659955,0.0378 0.912267,-0.028 1.196826,-0.31264 0.286631,-0.28663 0.44067,-0.67555 0.40566,-1.02526 -0.02609,-0.26056 -0.128699,-0.50074 -0.476457,-1.11673 -0.130786,-0.23166 -0.212537,-0.43544 -0.212907,-0.5302 -7.94e-4,-0.17396 0.302701,-0.81103 0.495577,-1.04025 0.142763,-0.16966 0.265414,-0.25372 0.439766,-0.25166 z m -25.221196,2.83342 c 0.40773,-2.7e-4 1.23303,0.11506 2.03657,0.28422 0.37512,0.079 1.2762,0.25808 2.00246,0.39842 2.38639,0.46116 3.444635,0.85042 3.82767,1.40715 0.224592,0.32643 0.300773,0.67452 0.299207,1.36736 -0.0016,0.72674 -0.09314,1.22726 -0.413928,2.25774 -0.286816,0.92136 -0.524823,1.49401 -1.083659,2.6107 -0.25246,0.50447 -0.58218,1.17758 -0.73277,1.49603 -0.1506,0.31845 -0.36882,0.72251 -0.48524,0.89762 -0.23337,0.35105 -0.61584,0.73315 -0.80512,0.80512 -0.18603,0.0707 -0.4906,0.0521 -0.74156,-0.046 -0.6661,-0.26026 -0.88027,-0.76315 -0.6444,-1.51361 0.0517,-0.16441 0.35975,-0.78577 0.68471,-1.38079 0.79788,-1.46099 1.0133,-1.91515 1.24695,-2.63395 0.10932,-0.33632 0.31715,-0.84456 0.46199,-1.12913 0.14484,-0.28457 0.27123,-0.53571 0.28112,-0.5581 l 5.2e-4,-5.2e-4 v -5.2e-4 -5.1e-4 -5.2e-4 -5.2e-4 h -5.2e-4 l -5.2e-4,-5.1e-4 h -5.1e-4 c -0.0169,-4.4e-4 -0.1548,0.0922 -0.32763,0.22117 -0.43343,0.32335 -1.23109,0.78637 -2.50786,1.45521 -0.54469,0.28533 -1.11087,0.59141 -1.25832,0.68006 -0.48326,0.29054 -0.98082,0.49518 -1.26452,0.5209 -0.24737,0.0224 -0.29237,0.011 -0.54467,-0.14263 -0.31952,-0.19462 -0.55396,-0.42454 -0.62477,-0.61236 -0.0783,-0.20776 -0.0588,-0.54847 0.0434,-0.75965 0.19566,-0.40418 0.87041,-0.90571 1.87327,-1.39216 0.38008,-0.18437 0.87578,-0.44007 1.10122,-0.56844 0.43838,-0.24961 0.97743,-0.62858 0.97721,-0.68678 v -5.2e-4 -5.1e-4 -5.2e-4 l -5.2e-4,-5.2e-4 c -0.0213,-0.0436 -0.70087,-0.25205 -1.17512,-0.35967 -0.16816,-0.0382 -0.69172,-0.11286 -1.16376,-0.16639 -1.06261,-0.12049 -1.11318,-0.1305 -1.38492,-0.26614 -0.43782,-0.21853 -0.59397,-0.63098 -0.5054,-1.33635 0.0749,-0.59676 0.3181,-0.84408 0.82941,-0.84439 z m 21.318592,3.46438 -0.12609,0.0941 c -0.152776,0.11407 -0.770688,1.20053 -0.903821,1.58905 -0.08932,0.26064 -0.0956,0.39272 -0.0956,1.94406 0,1.65101 3.22e-4,1.66678 0.117305,2.01487 0.36263,1.08026 0.972275,1.89861 1.83193,2.4598 0.563899,0.36811 0.929412,0.44552 1.555977,0.32969 0.152469,-0.0282 0.375847,-0.10107 0.496611,-0.16226 0.454144,-0.23013 1.330109,-1.0141 1.753898,-1.56993 l 0.194303,-0.25477 0.01499,-1.08572 c 0.0096,-0.68486 -0.0051,-1.21613 -0.04031,-1.43867 -0.06133,-0.38745 -0.469205,-1.55846 -0.874882,-2.51199 -0.335349,-0.78824 -0.422234,-0.95577 -0.525033,-1.01079 -0.04637,-0.0248 -0.42183,-0.0583 -0.834574,-0.0749 -0.99559,-0.0399 -1.548155,-0.0977 -2.104265,-0.22066 z m -13.334586,17.57309 c 0.637861,-0.0128 1.292135,0.11674 1.816426,0.39223 0.360932,0.18966 1.026263,0.75539 1.436605,1.22163 1.081366,1.22869 1.769098,2.555 2.186947,4.21783 0.37207,1.48067 0.453134,2.08057 0.518831,3.82509 0.105981,2.81423 -0.07589,5.02883 -0.531234,6.46265 -0.333459,1.05002 -0.99368,2.47847 -1.480529,3.20342 -0.660339,0.98331 -1.62344,2.04441 -2.486154,2.73937 -1.183166,0.95309 -2.796108,1.86536 -3.551718,2.00866 -0.3365,0.0638 -0.41623,0.059 -0.63459,-0.0408 -0.22376,-0.10221 -0.54041,-0.43419 -0.68575,-0.71882 -0.15332,-0.30026 -0.17737,-0.76538 -0.0522,-1.01079 0.19175,-0.37586 0.57975,-0.66519 1.56321,-1.16582 1.009894,-0.51407 1.276197,-0.67923 1.906347,-1.18184 0.896845,-0.71532 1.233138,-1.0836 1.928564,-2.11408 0.501727,-0.74343 0.879845,-1.5231 1.16427,-2.39934 0.540982,-1.66662 0.690238,-2.63136 0.689881,-4.46329 -2.65e-4,-2.60904 -0.354211,-4.52497 -1.109493,-6.00584 -0.395891,-0.77621 -0.790283,-1.33511 -1.311031,-1.85828 -0.548664,-0.55122 -0.935671,-0.77756 -1.382862,-0.80926 -0.244597,-0.0173 -0.28162,-0.006 -0.481624,0.14728 -0.347454,0.26627 -3.004802,3.27023 -4.246252,4.80023 -1.77294,2.18501 -2.20184,2.68632 -3.43958,4.02301 -0.46567,0.5029 -0.96092,1.04298 -1.10071,1.19992 -0.55976,0.62839 -2.26633,2.37131 -2.7001,2.75746 -0.25374,0.22588 -0.59221,0.48161 -0.7524,0.56844 -0.2665,0.14446 -0.32618,0.15753 -0.69815,0.15761 -0.34002,0 -0.42376,-0.0148 -0.51212,-0.0935 -0.16448,-0.14649 -0.23357,-0.36698 -0.23357,-0.74311 0,-0.58986 0.067,-0.71118 0.79478,-1.43867 0.67104,-0.67082 1.37488,-1.44798 2.24121,-2.47479 0.28352,-0.33605 0.77985,-0.89691 1.10329,-1.24643 1.33362,-1.44114 1.61498,-1.76037 2.23862,-2.54352 0.67297,-0.8451 1.32916,-1.65087 2.2779,-2.79569 0.30015,-0.36219 0.82845,-1.01799 1.17357,-1.45779 1.17106,-1.49236 1.86674,-2.20646 2.63188,-2.69958 0.45818,-0.29529 1.079864,-0.45069 1.717726,-0.46354 z" /></g></svg>
