<?xml version="1.0" encoding="UTF-8" standalone="no"?>
<!-- Created with Inkscape (http://www.inkscape.org/) -->

<svg
   width="79.375008mm"
   height="79.363289mm"
   viewBox="0 0 79.375008 79.363289"
   version="1.1"
   id="svg1"
   xml:space="preserve"
   xmlns="http://www.w3.org/2000/svg"
   xmlns:svg="http://www.w3.org/2000/svg"><defs
     id="defs1" /><g
     id="layer1"
     transform="translate(107.86856,-54.837733)"><path
       style="fill:#f9f9f9"
       d="m -95.64435,133.6777 c -2.95322,-0.77369 -4.94073,-1.95175 -7.33907,-4.35009 -2.43112,-2.43112 -3.58335,-4.3971 -4.36246,-7.4434 -0.50262,-1.96524 -0.52267,-3.01458 -0.52267,-27.358979 0,-24.34439 0.02,-25.39373 0.52267,-27.35897 0.77911,-3.04631 1.93134,-5.01228 4.36246,-7.4434 2.43111,-2.43112 4.39709,-3.58334 7.4434,-4.36246 1.96523,-0.50262 3.01457,-0.52267 27.358969,-0.52267 24.344394,0 25.393734,0.02 27.358974,0.52267 3.04631,0.77912 5.01228,1.93134 7.4434,4.36246 2.43112,2.43112 3.58334,4.39709 4.36246,7.4434 0.50262,1.96524 0.52267,3.01458 0.52267,27.35897 0,24.344399 -0.02,25.393739 -0.52267,27.358979 -0.77912,3.0463 -1.93134,5.01228 -4.36246,7.4434 -2.43112,2.43111 -4.39709,3.58334 -7.4434,4.36245 -1.96763,0.50324 -2.989,0.52213 -27.467444,0.50811 -24.157879,-0.0139 -25.519969,-0.0398 -27.354829,-0.52047 z m 17.955693,-15.34928 c 0.467074,-0.24997 0.511772,-0.58504 0.511772,-3.83645 0,-1.95941 0.07227,-3.56257 0.160611,-3.56257 0.08834,0 0.916306,0.36066 1.839934,0.80147 3.964495,1.89208 9.445458,2.41352 13.765986,1.30966 6.589813,-1.68365 11.891817,-6.54226 14.172547,-12.98734 4.62586,-13.072119 -5.069419,-26.897119 -18.958869,-27.034449 -4.182319,-0.0413 -8.353657,1.15482 -11.352325,3.2554 -0.826906,0.57925 -1.536928,1.05318 -1.577828,1.05318 -0.0409,0 -0.640696,-0.89401 -1.33288,-1.98669 -0.692184,-1.09268 -1.479044,-2.10471 -1.748577,-2.24896 -0.644422,-0.34488 -3.330334,-0.33704 -3.981824,0.0116 -0.49976,0.26747 -0.51177,0.79727 -0.51177,22.56896 0,16.987829 0.0756,22.370649 0.3175,22.612569 0.40363,0.40363 7.952281,0.44148 8.695723,0.0436 z m 8.455687,-14.70234 c -2.062228,-0.55417 -3.442994,-1.44588 -5.136364,-3.31712 -3.84831,-4.252519 -3.67166,-10.337839 0.42022,-14.475889 5.958445,-6.02568 16.380337,-2.87517 17.946499,5.42517 1.472693,7.80497 -5.601432,14.417919 -13.230355,12.367839 z"
       id="path1" /></g></svg>
